<?xml version="1.0" encoding="utf-8"?><!-- Uploaded to: SVG Repo, www.svgrepo.com, Generator: SVG Repo Mixer Tools -->
<svg width="800px" height="800px" viewBox="0 0 24 24" xmlns="http://www.w3.org/2000/svg">
  <title>material_design</title>
  <rect width="24" height="24" fill="none"/>
  <path d="M21,12a9,9,0,0,0-2-5.62V17.63A8.78,8.78,0,0,0,21,12m-3.37,7H6.38a9.5,9.5,0,0,0,2.67,1.41A8.91,8.91,0,0,0,12,21,8.86,8.86,0,0,0,15,20.41,9.72,9.72,0,0,0,17.63,19M11,17,7,9v8h4m6-8-4,8h4V9m-5,5.53L15.75,7H8.25L12,14.53M17.63,5A8.91,8.91,0,0,0,6.38,5H17.63M5,17.63V6.38A9,9,0,0,0,3,12a8.78,8.78,0,0,0,2,5.63M23,12a10.57,10.57,0,0,1-3.22,7.78A10.57,10.57,0,0,1,12,23a10.59,10.59,0,0,1-7.78-3.22A10.57,10.57,0,0,1,1,12,10.59,10.59,0,0,1,4.22,4.22,10.59,10.59,0,0,1,12,1a10.57,10.57,0,0,1,7.78,3.22A10.59,10.59,0,0,1,23,12Z"/>
</svg>