<?xml version="1.0" standalone="no"?>
<!DOCTYPE svg PUBLIC "-//W3C//DTD SVG 20010904//EN"
 "http://www.w3.org/TR/2001/REC-SVG-20010904/DTD/svg10.dtd">
<svg version="1.0" xmlns="http://www.w3.org/2000/svg"
 width="528.000000pt" height="540.000000pt" viewBox="0 0 528.000000 540.000000"
 preserveAspectRatio="xMidYMid meet">
<metadata>
Created by potrace 1.15, written by Peter Selinger 2001-2017
</metadata>
<g transform="translate(0.000000,540.000000) scale(0.100000,-0.100000)"
fill="#000000" stroke="none">
<path d="M2545 4993 c-1392 -223 -2533 -408 -2536 -411 -3 -4 22 -182 57 -397
l63 -390 1 -387 0 -388 55 0 55 0 0 -1510 0 -1510 2475 0 2475 0 0 1510 0
1510 45 0 45 0 0 400 0 400 -2490 2 -2490 3 2451 392 c1348 215 2453 394 2456
396 6 7 -117 770 -125 778 -4 3 -1145 -176 -2537 -398z m2102 -65 c117 -166
211 -303 209 -305 -5 -5 -365 -63 -389 -63 -17 1 -64 61 -226 293 -113 161
-205 297 -204 302 0 7 315 67 388 73 6 1 105 -134 222 -300z m-937 -152 c116
-164 209 -301 206 -303 -5 -5 -353 -62 -383 -63 -17 0 -64 60 -229 294 -114
161 -207 298 -207 302 0 8 363 73 390 70 7 0 107 -135 223 -300z m-940 -147
c117 -165 210 -302 207 -305 -6 -6 -351 -63 -383 -64 -15 0 -69 70 -226 293
-113 160 -207 297 -207 302 -1 8 209 47 391 74 3 1 102 -134 218 -300z m-933
-155 c193 -273 210 -300 190 -305 -41 -11 -387 -63 -390 -58 -26 31 -417 592
-417 597 0 7 376 72 395 68 6 -1 105 -137 222 -302z m-937 -149 c197 -280 209
-300 188 -307 -13 -3 -103 -19 -201 -34 -152 -23 -180 -25 -192 -13 -17 17
-406 570 -411 584 -4 9 361 75 393 71 6 0 107 -136 223 -301z m71 -899 c87
-178 159 -326 159 -330 0 -3 -93 -6 -206 -6 l-205 0 -160 326 c-87 179 -159
328 -159 330 0 2 93 4 206 4 l205 0 160 -324z m950 -1 c87 -179 159 -327 159
-330 0 -3 -93 -5 -206 -5 l-206 0 -159 324 c-87 179 -159 327 -159 330 0 3 93
6 206 6 l206 0 159 -325z m949 -1 c88 -180 160 -328 160 -330 0 -2 -92 -4
-205 -4 l-206 0 -159 322 c-88 177 -160 326 -160 330 0 4 92 8 205 8 l206 0
159 -326z m950 -1 c88 -179 160 -328 160 -330 0 -1 -93 -3 -207 -3 l-208 1
-158 322 c-86 177 -157 325 -157 330 0 4 92 7 205 7 l205 0 160 -327z m949 1
c89 -180 161 -328 161 -330 0 -2 -93 -4 -207 -4 l-208 0 -162 330 -161 330
208 0 208 0 161 -326z m-2318 -1239 c24 -14 51 -30 59 -35 49 -31 302 -180
305 -180 2 0 79 -45 171 -101 92 -55 183 -109 203 -120 103 -56 135 -79 143
-98 16 -45 -3 -63 -143 -140 -20 -11 -111 -65 -203 -120 -92 -56 -169 -101
-171 -101 -3 0 -256 -149 -305 -180 -102 -64 -123 -70 -152 -43 -17 15 -18 46
-18 561 0 494 2 547 17 564 22 24 42 23 94 -7z"/>
</g>
</svg>
